# xmcd CD database file
#
# Track frame offsets:
#	150
#	13875
#	27185
#	40315
#	53018
#	66866
#	80716
#	94505
#	109619
#	125083
#	138825
#	152759
#	173051
#	192674
#	206066
#	219709
#	232571
#	245569
#	258821
#	272069
#
# Disc length: 3798 seconds
#
# Revision: 0
# Processed by: cddbd v1.5.2PL0 Copyright (c) Steve Scherf et al.
# Submitted via: CDex 1.51
#
DISCID=180ed414
DTITLE=Pee Wee Russell - Weary Blues - Quadromania CD1
DYEAR=1900
DGENRE=Jazz
TTITLE0=The Eel
TTITLE1=Madame Dynamite
TTITLE2=Home Cooking
TTITLE3=Beat To The Socks
TTITLE4=Love Is Just Around The Corner
TTITLE5=Diane
TTITLE6=California Here I Come
TTITLE7=Nobody's Sweetheart
TTITLE8=Nobody's Sweetheart
TTITLE9=It's Right Here For You
TTITLE10=Strut Miss Lizzie
TTITLE11=A Good Man Is Hard To Find - Part 1
TTITLE12=A Good Man Is Hard To Find - Part 2
TTITLE13=Ballin' The Jack
TTITLE14=I Ain't Gonna Give Nobody None Of My Jelly Roll
TTITLE15=Sensation
TTITLE16=Fidgety Feet
TTITLE17=Oh, Sister Ain't That Hot
TTITLE18=Georgie Grind
TTITLE19=(You're Some) Pretty Doll
EXTD=
EXTT0=
EXTT1=
EXTT2=
EXTT3=
EXTT4=
EXTT5=
EXTT6=
EXTT7=
EXTT8=
EXTT9=
EXTT10=
EXTT11=
EXTT12=
EXTT13=
EXTT14=
EXTT15=
EXTT16=
EXTT17=
EXTT18=
EXTT19=
PLAYORDER=
